<?xml version="1.0" encoding="utf-8"?>
<!-- Generator: Adobe Illustrator 26.5.0, SVG Export Plug-In . SVG Version: 6.00 Build 0)  -->
<svg version="1.1" id="Layer_1" xmlns="http://www.w3.org/2000/svg" xmlns:xlink="http://www.w3.org/1999/xlink" x="0px" y="0px"
	 viewBox="0 0 2032 75" style="enable-background:new 0 0 2032 75;" xml:space="preserve">
<style type="text/css">
	.st0{fill:#FB5FA3;}
</style>
<path class="st0" d="M2022,58.31c-12.33,0-23.2-8.07-29.56-20.31c-6.36,12.24-17.22,20.31-29.56,20.31
	c-12.33,0-23.2-8.07-29.56-20.31c-6.36,12.24-17.22,20.31-29.56,20.31c-12.33,0-23.2-8.07-29.56-20.31
	c-6.36,12.24-17.22,20.31-29.56,20.31c-12.33,0-23.2-8.07-29.56-20.31c-6.36,12.24-17.22,20.31-29.56,20.31s-23.2-8.07-29.56-20.31
	c-6.36,12.24-17.22,20.31-29.56,20.31s-23.2-8.07-29.56-20.31c-6.36,12.24-17.22,20.31-29.56,20.31c-12.33,0-23.2-8.07-29.56-20.31
	c-6.36,12.24-17.22,20.31-29.56,20.31c-12.33,0-23.2-8.07-29.56-20.31c-6.36,12.24-17.22,20.31-29.56,20.31s-23.2-8.07-29.56-20.31
	c-6.36,12.24-17.22,20.31-29.56,20.31s-23.2-8.07-29.56-20.31c-6.36,12.24-17.22,20.31-29.56,20.31c-12.33,0-23.2-8.07-29.56-20.31
	c-6.36,12.24-17.22,20.31-29.56,20.31c-12.33,0-23.2-8.07-29.56-20.31c-6.36,12.24-17.22,20.31-29.56,20.31s-23.2-8.07-29.56-20.31
	c-6.36,12.24-17.22,20.31-29.56,20.31s-23.2-8.07-29.56-20.31c-6.36,12.24-17.22,20.31-29.56,20.31c-12.33,0-23.2-8.07-29.56-20.31
	c-6.36,12.24-17.22,20.31-29.56,20.31c-12.33,0-23.2-8.07-29.56-20.31c-6.36,12.24-17.22,20.31-29.56,20.31
	c-12.33,0-23.2-8.07-29.56-20.31c-6.36,12.24-17.22,20.31-29.56,20.31c-12.33,0-23.2-8.07-29.56-20.31
	c-6.36,12.24-17.22,20.31-29.56,20.31c-12.33,0-23.2-8.07-29.56-20.31c-6.36,12.24-17.22,20.31-29.56,20.31s-23.2-8.07-29.56-20.31
	c-6.36,12.24-17.22,20.31-29.56,20.31s-23.2-8.07-29.56-20.31c-6.36,12.24-17.22,20.31-29.56,20.31s-23.2-8.07-29.56-20.31
	c-6.36,12.24-17.22,20.31-29.56,20.31s-23.2-8.07-29.56-20.31c-6.36,12.24-17.22,20.31-29.56,20.31S639.1,50.24,632.74,38
	c-6.36,12.24-17.22,20.31-29.56,20.31s-23.2-8.07-29.56-20.31c-6.36,12.24-17.22,20.31-29.56,20.31S520.86,50.24,514.5,38
	c-6.36,12.24-17.22,20.31-29.56,20.31s-23.2-8.07-29.56-20.31c-6.36,12.24-17.22,20.31-29.56,20.31s-23.2-8.07-29.56-20.31
	c-6.36,12.24-17.22,20.31-29.56,20.31s-23.2-8.07-29.56-20.31c-6.36,12.24-17.22,20.31-29.56,20.31s-23.2-8.07-29.56-20.31
	c-6.36,12.24-17.22,20.31-29.56,20.31s-23.2-8.07-29.56-20.31c-6.36,12.24-17.22,20.31-29.56,20.31s-23.2-8.07-29.56-20.31
	c-6.36,12.24-17.22,20.31-29.56,20.31s-23.2-8.07-29.56-20.31c-6.36,12.24-17.22,20.31-29.56,20.31c-12.33,0-23.2-8.07-29.56-20.31
	C35.2,50.24,24.33,58.31,12,58.31c-3.84,0-7.54-0.79-11-2.24V95.5h2032V56.07C2029.54,57.52,2025.84,58.31,2022,58.31z"/>
</svg>
